<?xml version="1.0" encoding="UTF-8"?><svg xmlns="http://www.w3.org/2000/svg" viewBox="0 0 306 423.5"><defs><style>.cls-1{fill:none;stroke:#000;stroke-miterlimit:10;stroke-width:3px;}.cls-2{fill:#aaa;}.cls-3{fill:#ccc;}.cls-4{fill:#353535;}</style></defs><g id="Head"><path class="cls-3" d="M134.44,412.1c13.88-3.52,44.17-13.33,64.38-38.4,31.17-38.66,37.73-51.8,47.29-75.24,19.96-10.76,41.28-27.35,47.17-52.68,3.4-14.61,11.8-25.84,9.3-39.93-2.67-15-9.03-18.53-15.26-13.82,4.11-30.87,13.99-58.04,5.95-96.15-3.42-16.2-30.32-50.15-70.54-71.86S133.9-8.99,90.35,28.11C46.81,65.2,34.21,66.38,19.41,125.56l1.17,56.74s-16.04-1.68-12.98,7.25c5.12,14.96-.28,27.66,7.13,35.54-1.55,24.28,4.31,113.99,20.79,144.47s67.29,50.57,98.93,42.54Z"/></g><g id="Face"><circle cx="165.06" cy="198.99" r="6"/><circle cx="65.17" cy="187.03" r="6"/><polygon points="206.33 198.33 186.37 182.39 135.05 173.53 139.26 164.24 196.82 168.4 208.8 187.69 206.33 198.33"/><polygon points="86.03 172.38 78.05 158.15 35.32 156.47 26.73 180.14 44.8 173.05 86.03 172.38"/><path class="cls-1" d="M140.75,314.56c-11.95-3.88-29.57-5.41-36.09-3.85s-11.62,1.4-17.01-1.91-15.06-1.45-26.3-6.12"/><polygon class="cls-2" points="99.98 191.03 77.5 250.93 91.63 263.01 114.3 257 99.98 191.03"/><path class="cls-1" d="M274.35,230.08c-7.66,6.43-11.62,4.48-8.08,11.98s.62,6.82-3.21,10.03-6.13,4.79-3.79,9.92"/></g><g id="Hair"><path class="cls-4" d="M14.35,224.49c-4.22,.13-10.7,85.59,32.13,170.73,0,0,34.68,38.96,105.21,11.14,47.48-18.72,69.64-52.9,86.37-88.73,12.83-27.49,14.23-56.28,18.1-86.14l-4.56-20.57c-7.38,20.39-27.06,80.97-86.35,119.54l-7.29-30.44-42.67-28.41-17.62,5.14-14.22-9.47-35.08,18.37-6.93,38.59s-24.75-30.4-25.85-83.02c-.21-9.91-.26-16.75-1.24-16.72Zm45.89,75.04c37.56-3.91,81.46,10.89,81.46,10.89l6.15,24.21c-15.93,19.91-41.5,28.33-41.5,28.33l7.03-30.19-37.76-9.82-12.03,20.81-9.34-18.48,5.99-25.75Z"/><path class="cls-4" d="M250.7,214.82c12.04-48.53,32.33-130.06-36.34-161.44l-65.01,14.64-50.99-23.55s-80.89,.03-77.81,136.28c-10.06-68.05,6.21-88.91,24.24-113.46C61.07,45.12,98.79,4.17,146.84,3.78c59.66-.49,107.83,29.87,134.04,68.16,9.19,13.43,14.13,18.69,16.03,45.83,1.64,23.53-6.7,53.1-9.2,73.84l-32.09,41.81-4.91-18.6Z"/></g></svg>