<?xml version="1.0" encoding="UTF-8"?><svg id="Layer_2" xmlns="http://www.w3.org/2000/svg" viewBox="0 0 164.36 168.06"><g id="Layer_1-2"><g><path d="m83.5,74.58H1.04c-.58,0-1.05-.47-1.04-1.05.05-9.69,1.67-16.33,2.39-18.81.19-.64.77-1.08,1.44-1.08h66.62c.33,5.97,3.11,17.14,13.05,20.95Z"/><path d="m91.5,79.37h71.69c.65,0,1.19.54,1.18,1.2-.2,8.44-2.51,15.75-3.43,18.35-.22.61-.79,1.01-1.43,1.01h-59.15c.32-10.72-2.21-14.83-8.86-20.56Z"/><path d="m75.96,42.18c0-23.66,9.94-32.08,27.95-32.08,6.99,0,12.29,1.26,17.43,3.37l-3.71,17.51c-4.63-2.1-8.25-3.03-11.96-3.03-7.24,0-9.6,3.45-9.6,14.15s2.36,14.15,9.85,14.15c3.37,0,7.33-.67,13.64-3.03v18.02c-5.81,2.61-11.62,2.86-14.9,2.86-18.78,0-28.71-8.25-28.71-31.91Z"/><path d="m46.22,79.15h23.41c17.01,0,25.26,6.48,25.26,18.1,0,5.89-2.44,9.68-6.74,12.46,6.06,2.86,8.42,7.58,8.42,13.39,0,11.54-8.25,18.02-25.26,18.02h-25.09v-61.97Zm22.57,25.09c3.7,0,5.98-1.85,5.98-5.56s-2.27-5.56-5.98-5.56h-3.28v11.11h3.28Zm1.68,22.9c3.71,0,5.98-1.85,5.98-5.56s-2.27-5.56-5.98-5.56h-4.97v11.11h4.97Z"/></g></g></svg>