<?xml version="1.0" encoding="utf-8"?>
<!-- Generator: Adobe Illustrator 27.3.1, SVG Export Plug-In . SVG Version: 6.00 Build 0)  -->
<svg version="1.1" id="Layer_1" xmlns="http://www.w3.org/2000/svg" xmlns:xlink="http://www.w3.org/1999/xlink" x="0px" y="0px"
	 viewBox="0 0 480 478" style="enable-background:new 0 0 480 478;" xml:space="preserve">
<style type="text/css">
	.st0{fill:#FFFFFF;}
</style>
<circle cx="241" cy="239" r="235"/>
<g>
	<path class="st0" d="M400.2,174.4c-5.6-3.3-12.8-4-19.1-1.8L321.8,194v-26.3c0-4.4-2-8.6-5.5-11.6c-3.5-3.1-8.4-4.8-13.4-4.8h-198
		c-5,0-9.8,1.7-13.3,4.7c-3.5,3-5.6,7.2-5.6,11.5v150.6c0,4.4,2,8.6,5.5,11.6c3.6,3.1,8.4,4.8,13.4,4.8h198c5,0,9.8-1.8,13.4-4.8
		c3.5-3.1,5.5-7.3,5.5-11.6v-26.3l59.3,21.2c2.4,0.9,5.1,1.3,7.7,1.3c5.3,0,10.5-1.8,14.3-5.2c3.8-3.3,5.9-7.8,5.9-12.4V189.1
		C409.1,183.2,405.8,177.6,400.2,174.4L400.2,174.4z M301.5,207v110H106.1V168.6h195.4V207z M389,296.6l-67.2-24v-59.7l67.2-23.9
		V296.6z"/>
</g>
</svg>
